<svg width="318" height="318" viewBox="0 0 318 318" fill="none" xmlns="http://www.w3.org/2000/svg">
<circle cx="156.5" cy="142.5" r="140.5" stroke="white" stroke-width="3"/>
<circle cx="274.5" cy="78.5" r="43.5" fill="white"/>
<circle cx="156.5" cy="274.5" r="43.5" fill="white"/>
<circle cx="43.5" cy="78.5" r="43.5" fill="white"/>
<path d="M288.371 78.7383L273.625 53.25L258.781 78.7383L273.625 87.8203L288.371 78.7383ZM273.625 90.75L258.781 81.668L273.625 103.25L288.469 81.668L273.625 90.75Z" fill="black"/>
<path d="M21 56.375V100.125H64.75V56.375H21ZM44.7305 90.5547C44.7305 94.7539 42.2891 96.707 38.5781 96.707C35.3555 96.707 33.4023 95.0469 32.4258 92.9961L35.8438 90.9453C36.4297 92.1172 37.0156 93.0938 38.4805 93.0938C39.75 93.0938 40.6289 92.5078 40.6289 90.457V76.4922H44.7305V90.5547ZM54.4961 96.707C50.6875 96.707 48.2461 94.9492 46.9766 92.5078L50.3945 90.6523C51.2734 92.0195 52.3477 93.0938 54.3984 93.0938C56.0586 93.0938 57.2305 92.2148 57.2305 91.043C57.2305 89.6758 56.0586 89.1875 54.2031 88.3086L53.1289 87.918C50.1992 86.6484 48.2461 85.0859 48.2461 81.668C48.2461 78.6406 50.5898 76.2969 54.3008 76.2969C56.8398 76.2969 58.793 77.1758 60.0625 79.5195L56.9375 81.5703C56.1562 80.3984 55.4727 79.8125 54.2031 79.8125C53.0312 79.8125 52.25 80.5938 52.25 81.5703C52.25 82.8398 53.0312 83.3281 54.7891 84.1094L55.8633 84.5977C59.3789 86.0625 61.332 87.625 61.332 91.043C61.332 94.7539 58.4023 96.707 54.4961 96.707Z" fill="black"/>
<path d="M172.82 266.633C172.234 266.438 171.746 266.242 171.258 266.145C171.258 265.754 171.355 265.363 171.453 264.973C172.625 259.211 171.844 254.523 169.207 252.961C166.668 251.496 162.469 253.059 158.172 256.77C157.781 257.062 157.391 257.453 157 257.844C156.707 257.551 156.414 257.355 156.219 257.062C151.727 253.156 147.234 251.496 144.598 253.059C142.059 254.523 141.277 258.918 142.352 264.484C142.449 264.973 142.547 265.559 142.742 266.047C142.059 266.242 141.473 266.438 140.887 266.633C135.711 268.488 132 271.32 132 274.25C132 277.277 135.906 280.402 141.375 282.258C141.766 282.355 142.254 282.551 142.645 282.648C142.547 283.234 142.449 283.82 142.254 284.406C141.277 289.777 142.059 294.074 144.598 295.539C147.234 297.102 151.727 295.539 156.023 291.73C156.316 291.438 156.707 291.145 157 290.852C157.488 291.242 157.879 291.633 158.367 292.023C162.566 295.637 166.668 297.102 169.207 295.637C171.844 294.074 172.723 289.484 171.648 283.82C171.551 283.43 171.453 282.941 171.355 282.551C171.648 282.453 171.941 282.355 172.234 282.258C177.898 280.402 182 277.375 182 274.25C182 271.32 178.094 268.391 172.82 266.633ZM159.539 258.332C163.25 255.109 166.57 253.938 168.133 254.816C169.793 255.695 170.477 259.602 169.402 264.582C169.305 264.973 169.305 265.266 169.207 265.559C166.961 265.07 164.812 264.777 162.566 264.582C161.297 262.727 159.93 260.969 158.465 259.309C158.855 259.016 159.148 258.625 159.539 258.332ZM148.309 279.328C148.797 280.207 149.285 280.988 149.871 281.867C148.309 281.672 146.746 281.477 145.281 281.086C145.77 279.719 146.258 278.254 146.844 276.789C147.332 277.668 147.82 278.449 148.309 279.328ZM145.281 267.609C146.746 267.219 148.211 267.023 149.773 266.828C149.285 267.609 148.797 268.488 148.309 269.27C147.82 270.148 147.332 270.93 146.844 271.809C146.258 270.344 145.77 268.977 145.281 267.609ZM148.016 274.348C148.602 272.98 149.383 271.613 150.066 270.344C150.848 269.074 151.629 267.805 152.508 266.535C153.973 266.438 155.438 266.34 157 266.34C158.465 266.34 160.027 266.438 161.395 266.535C162.273 267.805 163.055 269.074 163.836 270.344C164.52 271.613 165.301 272.883 165.887 274.25C165.301 275.617 164.617 276.984 163.836 278.254C163.055 279.523 162.273 280.793 161.492 282.062C160.027 282.16 158.465 282.258 157 282.258C155.438 282.258 153.973 282.16 152.508 282.062C151.629 280.793 150.848 279.523 150.066 278.254C149.383 276.984 148.699 275.617 148.016 274.348ZM165.594 279.328C166.18 278.449 166.57 277.57 167.059 276.691C167.645 278.156 168.23 279.523 168.719 280.988C167.156 281.379 165.691 281.672 164.129 281.77C164.617 280.988 165.105 280.109 165.594 279.328ZM167.059 271.809C166.57 270.93 166.082 270.148 165.594 269.27C165.105 268.488 164.617 267.609 164.129 266.828C165.691 267.023 167.254 267.316 168.621 267.609C168.133 269.074 167.645 270.441 167.059 271.809ZM157 260.871C157.977 261.945 158.953 263.117 159.832 264.387C157.977 264.289 156.023 264.289 154.07 264.387C155.047 263.117 156.023 261.945 157 260.871ZM145.672 254.816C147.332 253.938 150.945 255.305 154.754 258.625C155.047 258.918 155.242 259.113 155.535 259.309C153.973 260.969 152.605 262.727 151.336 264.582C149.09 264.777 146.941 265.07 144.793 265.559C144.598 265.07 144.5 264.582 144.402 263.996C143.523 259.309 144.109 255.793 145.672 254.816ZM143.23 280.598C142.84 280.5 142.449 280.402 142.059 280.207C140.008 279.523 137.566 278.547 135.906 277.18C134.93 276.496 134.246 275.422 134.051 274.25C134.051 272.492 137.176 270.148 141.57 268.586C142.156 268.391 142.742 268.293 143.328 268.098C143.914 270.246 144.793 272.297 145.672 274.348C144.695 276.301 143.914 278.449 143.23 280.598ZM154.656 290.168C152.996 291.633 151.141 292.805 149.09 293.586C148.016 294.172 146.844 294.172 145.672 293.781C144.109 292.805 143.523 289.387 144.402 284.797C144.5 284.211 144.598 283.625 144.695 283.137C146.941 283.625 149.09 283.918 151.336 284.113C152.605 285.871 154.07 287.629 155.535 289.289C155.242 289.582 154.949 289.875 154.656 290.168ZM157 287.824C156.023 286.75 155.047 285.578 154.07 284.211C155.047 284.309 156.023 284.309 157 284.309C157.977 284.309 158.953 284.309 159.93 284.211C159.051 285.48 158.074 286.652 157 287.824ZM169.793 290.754C169.695 291.926 169.109 293 168.23 293.781C166.668 294.66 163.348 293.488 159.734 290.461C159.344 290.07 158.953 289.68 158.465 289.289C160.027 287.629 161.395 285.969 162.664 284.113C164.91 283.918 167.059 283.527 169.305 283.039C169.402 283.43 169.5 283.82 169.598 284.211C169.988 286.359 170.086 288.605 169.793 290.754ZM171.551 280.207C171.258 280.305 171.062 280.402 170.77 280.5C170.086 278.352 169.207 276.301 168.23 274.25C169.207 272.297 169.988 270.246 170.672 268.098C171.16 268.293 171.648 268.391 172.137 268.586C176.629 270.148 179.852 272.492 179.852 274.25C179.852 276.105 176.434 278.645 171.551 280.207ZM157 278.742C159.441 278.742 161.395 276.789 161.395 274.25C161.395 271.809 159.441 269.855 157 269.855C154.461 269.855 152.508 271.809 152.508 274.25C152.508 276.789 154.461 278.742 157 278.742Z" fill="black"/>
</svg>
