<svg width="550" height="64" viewBox="0 0 550 64" fill="none" xmlns="http://www.w3.org/2000/svg">
<path d="M0.12 48V1.92H8.824V48H0.12ZM21.9375 48V13.568C21.9375 12.6933 21.9588 11.7013 22.0015 10.592C22.0442 9.48266 22.2148 8.36266 22.5135 7.232C22.8335 6.10133 23.4095 5.07733 24.2415 4.16C25.3082 2.96533 26.4602 2.15466 27.6975 1.728C28.9562 1.28 30.1722 1.04533 31.3455 1.024C32.5188 0.981332 33.5215 0.959999 34.3535 0.959999H38.6415V8H34.6735C33.3082 8 32.2948 8.352 31.6335 9.056C30.9722 9.73867 30.6415 10.56 30.6415 11.52V48H21.9375ZM16.4975 20.16V13.44H38.6415V20.16H16.4975ZM59.199 48.96C55.6577 48.96 52.5323 48.2027 49.823 46.688C47.135 45.152 45.023 43.0507 43.487 40.384C41.9723 37.696 41.215 34.624 41.215 31.168C41.215 27.392 41.9617 24.1067 43.455 21.312C44.9483 18.5173 47.007 16.352 49.631 14.816C52.255 13.2587 55.2737 12.48 58.687 12.48C62.3137 12.48 65.3963 13.3333 67.935 15.04C70.4737 16.7467 72.351 19.1467 73.567 22.24C74.783 25.3333 75.2097 28.9707 74.847 33.152H66.239V29.952C66.239 26.432 65.6737 23.904 64.543 22.368C63.4337 20.8107 61.6097 20.032 59.071 20.032C56.1057 20.032 53.919 20.9387 52.511 22.752C51.1243 24.544 50.431 27.2 50.431 30.72C50.431 33.9413 51.1243 36.4373 52.511 38.208C53.919 39.9573 55.9777 40.832 58.687 40.832C60.3937 40.832 61.855 40.4587 63.071 39.712C64.287 38.9653 65.215 37.888 65.855 36.48L74.559 38.976C73.2577 42.1333 71.199 44.5867 68.383 46.336C65.5883 48.0853 62.527 48.96 59.199 48.96ZM47.743 33.152V26.688H70.655V33.152H47.743ZM96.7285 48.96C93.5498 48.96 90.7658 48.16 88.3765 46.56C85.9872 44.96 84.1205 42.784 82.7765 40.032C81.4538 37.28 80.7925 34.176 80.7925 30.72C80.7925 27.2 81.4645 24.0747 82.8085 21.344C84.1738 18.592 86.0832 16.4267 88.5365 14.848C90.9898 13.2693 93.8698 12.48 97.1765 12.48C100.462 12.48 103.224 13.28 105.464 14.88C107.704 16.48 109.4 18.656 110.552 21.408C111.704 24.16 112.28 27.264 112.28 30.72C112.28 34.176 111.694 37.28 110.521 40.032C109.368 42.784 107.64 44.96 105.337 46.56C103.032 48.16 100.163 48.96 96.7285 48.96ZM98.1365 41.216C100.078 41.216 101.624 40.7787 102.776 39.904C103.95 39.0293 104.792 37.8027 105.304 36.224C105.816 34.6453 106.073 32.8107 106.073 30.72C106.073 28.6293 105.816 26.7947 105.304 25.216C104.792 23.6373 103.971 22.4107 102.84 21.536C101.731 20.6613 100.27 20.224 98.4565 20.224C96.5152 20.224 94.9152 20.704 93.6565 21.664C92.4192 22.6027 91.5018 23.872 90.9045 25.472C90.3072 27.0507 90.0085 28.8 90.0085 30.72C90.0085 32.6613 90.2965 34.432 90.8725 36.032C91.4485 37.6107 92.3338 38.8693 93.5285 39.808C94.7232 40.7467 96.2592 41.216 98.1365 41.216ZM106.073 48V24.32H104.984V1.92H113.752V48H106.073ZM132.952 48.96C130.478 48.96 128.376 48.4907 126.648 47.552C124.942 46.592 123.64 45.3227 122.744 43.744C121.87 42.144 121.432 40.384 121.432 38.464C121.432 36.864 121.678 35.4027 122.168 34.08C122.659 32.7573 123.448 31.5947 124.536 30.592C125.646 29.568 127.128 28.7147 128.984 28.032C130.264 27.5627 131.79 27.1467 133.56 26.784C135.331 26.4213 137.336 26.08 139.576 25.76C141.816 25.4187 144.28 25.0453 146.968 24.64L143.832 26.368C143.832 24.32 143.342 22.816 142.36 21.856C141.379 20.896 139.736 20.416 137.432 20.416C136.152 20.416 134.819 20.7253 133.432 21.344C132.046 21.9627 131.075 23.0613 130.52 24.64L122.648 22.144C123.523 19.2853 125.166 16.96 127.576 15.168C129.987 13.376 133.272 12.48 137.432 12.48C140.483 12.48 143.192 12.9493 145.56 13.888C147.928 14.8267 149.72 16.448 150.937 18.752C151.619 20.032 152.024 21.312 152.153 22.592C152.28 23.872 152.344 25.3013 152.344 26.88V48H144.728V40.896L145.816 42.368C144.131 44.6933 142.307 46.3787 140.344 47.424C138.403 48.448 135.939 48.96 132.952 48.96ZM134.808 42.112C136.408 42.112 137.752 41.8347 138.84 41.28C139.95 40.704 140.824 40.0533 141.464 39.328C142.126 38.6027 142.574 37.9947 142.808 37.504C143.256 36.5653 143.512 35.4773 143.576 34.24C143.662 32.9813 143.704 31.936 143.704 31.104L146.264 31.744C143.683 32.1707 141.592 32.5333 139.992 32.832C138.392 33.1093 137.102 33.3653 136.12 33.6C135.139 33.8347 134.275 34.0907 133.528 34.368C132.675 34.7093 131.982 35.0827 131.448 35.488C130.936 35.872 130.552 36.2987 130.296 36.768C130.062 37.2373 129.944 37.76 129.944 38.336C129.944 39.1253 130.136 39.808 130.52 40.384C130.926 40.9387 131.491 41.3653 132.216 41.664C132.942 41.9627 133.806 42.112 134.808 42.112ZM178.265 48.96C174.83 48.96 171.961 48.16 169.657 46.56C167.353 44.96 165.614 42.784 164.441 40.032C163.289 37.28 162.713 34.176 162.713 30.72C162.713 27.264 163.289 24.16 164.441 21.408C165.593 18.656 167.289 16.48 169.529 14.88C171.769 13.28 174.532 12.48 177.817 12.48C181.124 12.48 184.004 13.2693 186.457 14.848C188.91 16.4267 190.809 18.592 192.153 21.344C193.518 24.0747 194.201 27.2 194.201 30.72C194.201 34.176 193.529 37.28 192.185 40.032C190.862 42.784 189.006 44.96 186.617 46.56C184.228 48.16 181.444 48.96 178.265 48.96ZM161.241 63.36V13.44H168.921V37.12H170.009V63.36H161.241ZM176.857 41.216C178.734 41.216 180.27 40.7467 181.465 39.808C182.66 38.8693 183.545 37.6107 184.121 36.032C184.697 34.432 184.985 32.6613 184.985 30.72C184.985 28.8 184.686 27.0507 184.089 25.472C183.492 23.872 182.564 22.6027 181.305 21.664C180.068 20.704 178.478 20.224 176.537 20.224C174.724 20.224 173.252 20.6613 172.121 21.536C171.012 22.4107 170.201 23.6373 169.689 25.216C169.177 26.7947 168.921 28.6293 168.921 30.72C168.921 32.8107 169.177 34.6453 169.689 36.224C170.201 37.8027 171.033 39.0293 172.185 39.904C173.358 40.7787 174.916 41.216 176.857 41.216ZM217.434 48.96C213.957 48.96 210.906 48.1813 208.282 46.624C205.658 45.0667 203.61 42.9227 202.138 40.192C200.688 37.44 199.962 34.2827 199.962 30.72C199.962 27.1147 200.709 23.9467 202.202 21.216C203.696 18.464 205.754 16.32 208.378 14.784C211.002 13.248 214.021 12.48 217.434 12.48C220.912 12.48 223.962 13.2587 226.586 14.816C229.232 16.3733 231.29 18.528 232.762 21.28C234.234 24.0107 234.97 27.1573 234.97 30.72C234.97 34.304 234.224 37.472 232.73 40.224C231.258 42.9547 229.2 45.0987 226.554 46.656C223.93 48.192 220.89 48.96 217.434 48.96ZM217.434 40.832C220.229 40.832 222.309 39.8933 223.674 38.016C225.061 36.1173 225.754 33.6853 225.754 30.72C225.754 27.648 225.05 25.1947 223.642 23.36C222.256 21.5253 220.186 20.608 217.434 20.608C215.536 20.608 213.978 21.0347 212.762 21.888C211.546 22.7413 210.64 23.9253 210.042 25.44C209.466 26.9547 209.178 28.7147 209.178 30.72C209.178 33.8133 209.872 36.2773 211.258 38.112C212.666 39.9253 214.725 40.832 217.434 40.832ZM540.925 48V39.296H549.629V48H540.925Z" fill="white"/>
<path d="M262.423 48.96C257.815 48.96 253.837 47.9573 250.487 45.952C247.159 43.9467 244.589 41.1413 242.775 37.536C240.983 33.9307 240.087 29.7387 240.087 24.96C240.087 20.1813 240.983 15.9893 242.775 12.384C244.589 8.77866 247.159 5.97333 250.487 3.968C253.837 1.96267 257.815 0.959999 262.423 0.959999C267.031 0.959999 270.999 1.96267 274.327 3.968C277.677 5.97333 280.247 8.77866 282.039 12.384C283.853 15.9893 284.759 20.1813 284.759 24.96C284.759 29.7387 283.853 33.9307 282.039 37.536C280.247 41.1413 277.677 43.9467 274.327 45.952C270.999 47.9573 267.031 48.96 262.423 48.96ZM262.423 40.768C265.346 40.8107 267.778 40.1813 269.719 38.88C271.661 37.5787 273.111 35.7333 274.071 33.344C275.053 30.9547 275.543 28.16 275.543 24.96C275.543 21.76 275.053 18.9867 274.071 16.64C273.111 14.2933 271.661 12.4693 269.719 11.168C267.778 9.86667 265.346 9.19467 262.423 9.152C259.501 9.10933 257.069 9.73866 255.127 11.04C253.186 12.3413 251.725 14.1867 250.743 16.576C249.783 18.9653 249.303 21.76 249.303 24.96C249.303 28.16 249.783 30.9333 250.743 33.28C251.725 35.6267 253.186 37.4507 255.127 38.752C257.069 40.0533 259.501 40.7253 262.423 40.768ZM305.803 48.96C302.625 48.96 299.841 48.16 297.451 46.56C295.062 44.96 293.195 42.784 291.851 40.032C290.529 37.28 289.867 34.176 289.867 30.72C289.867 27.2 290.539 24.0747 291.883 21.344C293.249 18.592 295.158 16.4267 297.611 14.848C300.065 13.2693 302.945 12.48 306.251 12.48C309.537 12.48 312.299 13.28 314.539 14.88C316.779 16.48 318.475 18.656 319.627 21.408C320.779 24.16 321.355 27.264 321.355 30.72C321.355 34.176 320.769 37.28 319.595 40.032C318.443 42.784 316.715 44.96 314.411 46.56C312.107 48.16 309.238 48.96 305.803 48.96ZM307.211 41.216C309.153 41.216 310.699 40.7787 311.851 39.904C313.025 39.0293 313.867 37.8027 314.379 36.224C314.891 34.6453 315.147 32.8107 315.147 30.72C315.147 28.6293 314.891 26.7947 314.379 25.216C313.867 23.6373 313.046 22.4107 311.915 21.536C310.806 20.6613 309.345 20.224 307.531 20.224C305.59 20.224 303.99 20.704 302.731 21.664C301.494 22.6027 300.577 23.872 299.979 25.472C299.382 27.0507 299.083 28.8 299.083 30.72C299.083 32.6613 299.371 34.432 299.947 36.032C300.523 37.6107 301.409 38.8693 302.603 39.808C303.798 40.7467 305.334 41.216 307.211 41.216ZM315.147 48V24.32H314.059V1.92H322.827V48H315.147ZM348.492 48.96C344.95 48.96 341.825 48.2027 339.116 46.688C336.428 45.152 334.316 43.0507 332.78 40.384C331.265 37.696 330.508 34.624 330.508 31.168C330.508 27.392 331.254 24.1067 332.748 21.312C334.241 18.5173 336.3 16.352 338.924 14.816C341.548 13.2587 344.566 12.48 347.98 12.48C351.606 12.48 354.689 13.3333 357.228 15.04C359.766 16.7467 361.644 19.1467 362.86 22.24C364.076 25.3333 364.502 28.9707 364.14 33.152H355.532V29.952C355.532 26.432 354.966 23.904 353.836 22.368C352.726 20.8107 350.902 20.032 348.364 20.032C345.398 20.032 343.212 20.9387 341.804 22.752C340.417 24.544 339.724 27.2 339.724 30.72C339.724 33.9413 340.417 36.4373 341.804 38.208C343.212 39.9573 345.27 40.832 347.98 40.832C349.686 40.832 351.148 40.4587 352.364 39.712C353.58 38.9653 354.508 37.888 355.148 36.48L363.852 38.976C362.55 42.1333 360.492 44.5867 357.676 46.336C354.881 48.0853 351.82 48.96 348.492 48.96ZM337.036 33.152V26.688H359.948V33.152H337.036ZM372.005 48V13.44H379.685V21.888L378.853 20.8C379.301 19.6053 379.898 18.5173 380.645 17.536C381.392 16.5547 382.309 15.744 383.397 15.104C384.229 14.592 385.136 14.1973 386.117 13.92C387.098 13.6213 388.112 13.44 389.157 13.376C390.202 13.2907 391.248 13.312 392.293 13.44V21.568C391.333 21.2693 390.213 21.1733 388.933 21.28C387.674 21.3653 386.533 21.6533 385.509 22.144C384.485 22.6133 383.621 23.2427 382.917 24.032C382.213 24.8 381.68 25.7173 381.317 26.784C380.954 27.8293 380.773 29.0133 380.773 30.336V48H372.005ZM399.66 8.64V0.959999H408.364V8.64H399.66ZM399.66 48V13.44H408.364V48H399.66ZM442.149 48V31.68C442.149 30.8907 442.107 29.888 442.021 28.672C441.936 27.4347 441.669 26.1973 441.221 24.96C440.773 23.7227 440.037 22.688 439.013 21.856C438.011 21.024 436.581 20.608 434.725 20.608C433.979 20.608 433.179 20.7253 432.325 20.96C431.472 21.1947 430.672 21.6533 429.925 22.336C429.179 22.9973 428.56 23.9787 428.069 25.28C427.6 26.5813 427.365 28.3093 427.365 30.464L422.373 28.096C422.373 25.3653 422.928 22.8053 424.037 20.416C425.147 18.0267 426.811 16.096 429.029 14.624C431.269 13.152 434.085 12.416 437.477 12.416C440.187 12.416 442.395 12.8747 444.101 13.792C445.808 14.7093 447.131 15.872 448.069 17.28C449.029 18.688 449.712 20.16 450.117 21.696C450.523 23.2107 450.768 24.5973 450.853 25.856C450.939 27.1147 450.981 28.032 450.981 28.608V48H442.149ZM418.533 48V13.44H426.277V24.896H427.365V48H418.533ZM473.316 48.96C470.137 48.96 467.353 48.16 464.964 46.56C462.575 44.96 460.708 42.784 459.364 40.032C458.041 37.28 457.38 34.176 457.38 30.72C457.38 27.2 458.052 24.0747 459.396 21.344C460.761 18.592 462.671 16.4267 465.124 14.848C467.577 13.2693 470.457 12.48 473.764 12.48C477.049 12.48 479.812 13.28 482.052 14.88C484.292 16.48 485.988 18.656 487.14 21.408C488.292 24.16 488.868 27.264 488.868 30.72C488.868 34.176 488.281 37.28 487.108 40.032C485.956 42.784 484.228 44.96 481.924 46.56C479.62 48.16 476.751 48.96 473.316 48.96ZM474.724 41.216C476.665 41.216 478.212 40.7787 479.364 39.904C480.537 39.0293 481.38 37.8027 481.892 36.224C482.404 34.6453 482.66 32.8107 482.66 30.72C482.66 28.6293 482.404 26.7947 481.892 25.216C481.38 23.6373 480.559 22.4107 479.428 21.536C478.319 20.6613 476.857 20.224 475.044 20.224C473.103 20.224 471.503 20.704 470.244 21.664C469.007 22.6027 468.089 23.872 467.492 25.472C466.895 27.0507 466.596 28.8 466.596 30.72C466.596 32.6613 466.884 34.432 467.46 36.032C468.036 37.6107 468.921 38.8693 470.116 39.808C471.311 40.7467 472.847 41.216 474.724 41.216ZM482.66 48V24.32H481.572V1.92H490.34V48H482.66ZM516.004 48.96C512.463 48.96 509.337 48.2027 506.628 46.688C503.94 45.152 501.828 43.0507 500.292 40.384C498.777 37.696 498.02 34.624 498.02 31.168C498.02 27.392 498.767 24.1067 500.26 21.312C501.753 18.5173 503.812 16.352 506.436 14.816C509.06 13.2587 512.079 12.48 515.492 12.48C519.119 12.48 522.201 13.3333 524.74 15.04C527.279 16.7467 529.156 19.1467 530.372 22.24C531.588 25.3333 532.015 28.9707 531.652 33.152H523.044V29.952C523.044 26.432 522.479 23.904 521.348 22.368C520.239 20.8107 518.415 20.032 515.876 20.032C512.911 20.032 510.724 20.9387 509.316 22.752C507.929 24.544 507.236 27.2 507.236 30.72C507.236 33.9413 507.929 36.4373 509.316 38.208C510.724 39.9573 512.783 40.832 515.492 40.832C517.199 40.832 518.66 40.4587 519.876 39.712C521.092 38.9653 522.02 37.888 522.66 36.48L531.364 38.976C530.063 42.1333 528.004 44.5867 525.188 46.336C522.393 48.0853 519.332 48.96 516.004 48.96ZM504.548 33.152V26.688H527.46V33.152H504.548Z" fill="#A0A0A0"/>
</svg>
